<svg width="226" height="225" viewBox="0 0 226 225" fill="none" xmlns="http://www.w3.org/2000/svg">
<path d="M128.508 223.585C150.478 220.617 171.075 211.2 187.694 196.526C204.313 181.851 216.207 162.579 221.872 141.145C227.538 119.711 226.72 97.0781 219.523 76.1088C212.325 55.1395 199.071 36.7755 181.437 23.3389L168.977 39.691C183.377 50.6633 194.201 65.6594 200.078 82.7829C205.955 99.9064 206.623 118.388 201.997 135.891C197.37 153.394 187.658 169.132 174.087 181.115C160.516 193.098 143.697 200.788 125.755 203.212L128.508 223.585Z" fill="#FFECC8"/>
<path d="M224.863 119.481C225.728 104.786 223.69 90.0647 218.866 76.1572C214.042 62.2498 206.526 49.4287 196.747 38.426C186.967 27.4233 175.117 18.4544 161.872 12.0316C148.626 5.60871 134.246 1.8576 119.551 0.992381L118.408 20.3959C130.555 21.1111 142.442 24.2118 153.391 29.5209C164.339 34.83 174.135 42.2437 182.218 51.3385C190.302 60.4333 196.515 71.0312 200.502 82.5272C204.49 94.0231 206.174 106.192 205.459 118.339L224.863 119.481Z" fill="#FFD4E3"/>
<path d="M134.249 2.51646C112.459 -1.57202 89.9462 0.892755 69.5572 9.59911C49.1681 18.3055 31.8187 32.8624 19.7028 51.429C7.5869 69.9956 1.24874 91.7381 1.48981 113.907C1.73088 136.076 8.54034 157.675 21.0571 175.974L38.0253 164.367C27.8041 149.425 22.2435 131.786 22.0466 113.683C21.8498 95.5803 27.0255 77.8254 36.9194 62.6639C46.8132 47.5024 60.9808 35.6152 77.6305 28.5056C94.2802 21.396 112.664 19.3833 130.458 22.7219L134.249 2.51646Z" fill="#E4D4FF"/>
<path d="M9.98125 68.9311C1.35267 89.4167 -1.00748 112.001 3.19926 133.828C7.40601 155.655 17.9907 175.744 33.6148 191.555C49.239 207.366 69.2009 218.189 90.9761 222.656C112.751 227.122 135.362 225.031 155.949 216.647L148.176 197.561C131.364 204.408 112.899 206.115 95.1168 202.468C77.3343 198.821 61.0327 189.982 48.2734 177.07C35.5141 164.158 26.8703 147.752 23.4349 129.928C19.9995 112.103 21.9269 93.6599 28.9733 76.9307L9.98125 68.9311Z" fill="#C3D1FF"/>
</svg>
