<svg width="30" height="30" viewBox="0 0 30 30" fill="none" xmlns="http://www.w3.org/2000/svg">
<rect width="30" height="30" rx="8" fill="#E4D4FF"/>
<path d="M11.3281 11.875H17.5781M11.3281 15H14.4531M20.4816 22.0546V22.0546C20.8591 22.2811 21.0478 22.3943 21.1922 22.4429C21.9855 22.7098 22.835 22.2289 23.0142 21.4112C23.0469 21.2624 23.0469 21.0423 23.0469 20.6022V14.6875C23.0469 12.0623 23.0469 10.7496 22.536 9.74692C22.0866 8.86491 21.3695 8.14781 20.4875 7.69841C19.4847 7.1875 18.1721 7.1875 15.5469 7.1875H14.4531C12.269 7.1875 11.177 7.1875 10.3155 7.54431C9.16698 8.02007 8.25444 8.9326 7.77869 10.0812C7.42188 10.9426 7.42188 12.0346 7.42188 14.2188V14.2188C7.42188 16.4029 7.42188 17.4949 7.77869 18.3563C8.25444 19.5049 9.16698 20.4174 10.3155 20.8932C11.177 21.25 12.269 21.25 14.4531 21.25H17.5768C17.8401 21.25 17.9718 21.25 18.1011 21.2572C18.7744 21.2944 19.4318 21.4765 20.0283 21.7909C20.1429 21.8514 20.2558 21.9191 20.4816 22.0546Z" stroke="#290073" stroke-width="1.40625" stroke-linecap="round" stroke-linejoin="round"/>
</svg>
