<svg width="30" height="30" viewBox="0 0 30 30" fill="none" xmlns="http://www.w3.org/2000/svg">
<rect width="30" height="30" rx="7.5" fill="#FFECC8"/>
<path d="M7.42188 12.959C7.42188 11.4202 8.50802 10.0953 10.0169 9.79349L10.123 9.77227C10.8946 9.61795 11.5733 9.16342 12.0098 8.50869V8.50869C12.5601 7.68328 13.4865 7.1875 14.4785 7.1875L15.9902 7.1875C16.9823 7.1875 17.9086 7.68328 18.4589 8.50869V8.50869C18.8954 9.16342 19.5741 9.61794 20.3457 9.77227L20.4518 9.79348C21.9607 10.0953 23.0469 11.4202 23.0469 12.959L23.0469 15.9436C23.0469 17.9754 23.0469 18.9913 22.7373 19.8004C22.2612 21.0442 21.2786 22.0269 20.0347 22.5029C19.2257 22.8125 18.2098 22.8125 16.178 22.8125L14.2907 22.8125C12.259 22.8125 11.2431 22.8125 10.434 22.5029C9.19016 22.0269 8.20751 21.0442 7.7315 19.8004C7.42188 18.9913 7.42188 17.9754 7.42188 15.9436L7.42188 12.959Z" stroke="#5E0A18" stroke-width="1.40625" stroke-linecap="round" stroke-linejoin="round"/>
<path d="M18.3594 15.7812C18.3594 17.5071 16.9603 18.9062 15.2344 18.9062C13.5085 18.9062 12.1094 17.5071 12.1094 15.7812C12.1094 14.0554 13.5085 12.6562 15.2344 12.6562C16.9603 12.6562 18.3594 14.0554 18.3594 15.7812Z" stroke="#5E0A18" stroke-width="1.40625" stroke-linecap="round" stroke-linejoin="round"/>
</svg>
