<svg width="30" height="30" viewBox="0 0 30 30" fill="none" xmlns="http://www.w3.org/2000/svg">
<rect width="30" height="30" rx="8" fill="#C3D1FF"/>
<path d="M8.20312 13.493C8.20312 14.2159 8.20312 14.5773 8.26767 14.9207C8.36356 15.4309 8.56433 15.9156 8.85726 16.3441C9.05442 16.6325 9.31 16.8881 9.82115 17.3993L12.1094 19.6875C13.2781 20.8562 13.8624 21.4405 14.5078 21.724C15.4687 22.1459 16.5625 22.1459 17.5235 21.724C18.1688 21.4405 18.7532 20.8562 19.9219 19.6875V19.6875C21.0906 18.5188 21.6749 17.9345 21.9583 17.2891C22.3803 16.3281 22.3803 15.2344 21.9583 14.2734C21.6749 13.628 21.0906 13.0437 19.9219 11.875L17.6336 9.58677C17.1225 9.07562 16.8669 8.82005 16.5785 8.62289C16.1499 8.32996 15.6652 8.12919 15.1551 8.03329C14.8117 7.96875 14.4503 7.96875 13.7274 7.96875V7.96875C12.0746 7.96875 11.2482 7.96875 10.5915 8.2247C9.61359 8.60579 8.84016 9.37922 8.45908 10.3571C8.20312 11.0139 8.20312 11.8403 8.20312 13.493V13.493Z" stroke="#00116C" stroke-width="1.40625" stroke-linecap="round" stroke-linejoin="round"/>
<path d="M15.2344 13.4375C15.2344 14.3004 14.5348 15 13.6719 15C12.8089 15 12.1094 14.3004 12.1094 13.4375C12.1094 12.5746 12.8089 11.875 13.6719 11.875C14.5348 11.875 15.2344 12.5746 15.2344 13.4375Z" stroke="#00116C" stroke-width="1.40625" stroke-linecap="round" stroke-linejoin="round"/>
</svg>
