<svg width="30" height="30" viewBox="0 0 30 30" fill="none" xmlns="http://www.w3.org/2000/svg">
<rect width="30" height="30" rx="8" fill="#FFD4E3"/>
<path d="M11.3281 7.57813V7.57813C11.3281 8.23155 11.3281 8.55826 11.2741 8.82994C11.0522 9.94563 10.18 10.8178 9.06432 11.0397C8.79263 11.0938 8.46592 11.0938 7.8125 11.0938V11.0938M19.1406 7.57813V7.57813C19.1406 8.23155 19.1406 8.55826 19.1947 8.82994C19.4166 9.94563 20.2887 10.8178 21.4044 11.0397C21.6761 11.0938 22.0028 11.0938 22.6563 11.0938V11.0938M19.1406 19.2969V19.2969C19.1406 18.6435 19.1406 18.3167 19.1947 18.0451C19.4166 16.9294 20.2887 16.0572 21.4044 15.8353C21.6761 15.7813 22.0028 15.7813 22.6563 15.7813V15.7813M11.3281 19.2969V19.2969C11.3281 18.6435 11.3281 18.3167 11.2741 18.0451C11.0522 16.9294 10.18 16.0572 9.06432 15.8353C8.79263 15.7813 8.46592 15.7813 7.8125 15.7813V15.7813M9.76563 22.8125H20.7031M16.7969 13.4379C16.7969 14.3008 16.0973 15.0004 15.2344 15.0004C14.3714 15.0004 13.6719 14.3008 13.6719 13.4379C13.6719 12.5749 14.3714 11.8754 15.2344 11.8754C16.0973 11.8754 16.7969 12.5749 16.7969 13.4379ZM23.0469 13.6875V13.1875C23.0469 11.0873 23.0469 10.0372 22.6382 9.23504C22.2786 8.52943 21.7049 7.95575 20.9993 7.59623C20.1972 7.1875 19.1471 7.1875 17.0469 7.1875L13.4219 7.1875C11.3217 7.1875 10.2716 7.1875 9.46941 7.59623C8.7638 7.95575 8.19013 8.52943 7.8306 9.23504C7.42188 10.0372 7.42188 11.0873 7.42188 13.1875V13.6875C7.42188 15.7877 7.42188 16.8378 7.8306 17.64C8.19013 18.3456 8.7638 18.9193 9.46941 19.2788C10.2716 19.6875 11.3217 19.6875 13.4219 19.6875H17.0469C19.1471 19.6875 20.1972 19.6875 20.9993 19.2788C21.7049 18.9193 22.2786 18.3456 22.6382 17.64C23.0469 16.8378 23.0469 15.7877 23.0469 13.6875Z" stroke="#5E000E" stroke-width="1.40625" stroke-linecap="round" stroke-linejoin="round"/>
</svg>
